<svg width="34" height="27" viewBox="0 0 34 27" fill="none" xmlns="http://www.w3.org/2000/svg">
<path d="M4.112 26.288C3.032 26.288 2.144 25.976 1.448 25.352C0.776 24.704 0.44 23.912 0.44 22.976C0.44 22.016 0.776 21.212 1.448 20.564C2.144 19.916 3.032 19.592 4.112 19.592C5.168 19.592 6.032 19.916 6.704 20.564C7.4 21.212 7.748 22.016 7.748 22.976C7.748 23.912 7.4 24.704 6.704 25.352C6.032 25.976 5.168 26.288 4.112 26.288ZM26.0442 26L17.5482 14.84V26H11.3922V0.727999H17.5482V11.816L25.9722 0.727999H33.2082L23.4162 13.112L33.5682 26H26.0442Z" fill="white"/>
</svg>
